<svg width="100" height="100" viewBox="0 0 100 100" fill="none" xmlns="http://www.w3.org/2000/svg">
<path d="M41.7646 15.4431H45.0688V18.7473H41.7646V15.4431Z" fill="#0A58FF"/>
<path d="M84.7183 55.0927H88.0224V58.3968H84.7183V55.0927Z" fill="#0A58FF"/>
<path d="M54.9811 81.5258H58.2852V84.83H54.9811V81.5258Z" fill="#0A58FF"/>
<path d="M41.7646 86.4821H45.0688V89.7862H41.7646V86.4821Z" fill="#0A58FF"/>
<path d="M15.3315 48.4844H18.6357V51.7886H15.3315V48.4844Z" fill="#0A58FF"/>
<path d="M54.9811 15.4431H58.2852V18.7473H54.9811V15.4431Z" fill="#0A58FF"/>
<path d="M81.4142 41.8762H84.7183V45.1803H81.4142V41.8762Z" fill="#0A58FF"/>
<path d="M73.1539 25.3555H76.4581V28.6597H73.1539V25.3555Z" fill="#0A58FF"/>
<path d="M23.5918 25.3555H26.8959V28.6597H23.5918V25.3555Z" fill="#0A58FF"/>
<path d="M73.1539 71.6134H76.4581V74.9175H73.1539V71.6134Z" fill="#0A58FF"/>
<path d="M23.5918 71.6134H26.8959V74.9175H23.5918V71.6134Z" fill="#0A58FF"/>
<path d="M49.8301 48.4845C48.6746 48.5218 47.5688 48.9626 46.7046 49.7304C45.8403 50.4981 45.2723 51.5444 45.0991 52.6873C44.926 53.8303 45.1586 54.9978 45.7567 55.9871C46.3547 56.9764 47.2804 57.725 48.3729 58.1028V61.701H51.6771V58.0913C52.7964 57.6993 53.7375 56.918 54.3288 55.89C54.9202 54.862 55.1223 53.6556 54.8984 52.491C54.6745 51.3264 54.0394 50.281 53.109 49.5455C52.1787 48.8101 51.0149 48.4335 49.8301 48.4845ZM51.6771 53.3763C51.6857 53.5931 51.6515 53.8096 51.5765 54.0132C51.5014 54.2168 51.387 54.4037 51.2397 54.5631C51.0924 54.7225 50.9152 54.8513 50.7181 54.9422C50.521 55.0331 50.308 55.0843 50.0911 55.0928C49.8739 55.1012 49.6572 55.0668 49.4534 54.9914C49.2496 54.916 49.0626 54.8011 48.9033 54.6533C48.6631 54.4316 48.4941 54.1437 48.4177 53.8259C48.3412 53.5081 48.3607 53.1748 48.4737 52.8682C48.5867 52.5615 48.7882 52.2952 49.0525 52.1031C49.3169 51.9109 49.6323 51.8015 49.9589 51.7886H50.025C50.452 51.7883 50.8624 51.9532 51.1704 52.2489C51.4784 52.5446 51.66 52.948 51.6771 53.3746V53.3763Z" fill="#0A58FF"/>
<path d="M58.2853 43.8323V41.8762C58.2853 39.6854 57.415 37.5844 55.8659 36.0353C54.3168 34.4862 52.2157 33.6159 50.0249 33.6159C47.8341 33.6159 45.7331 34.4862 44.184 36.0353C42.6349 37.5844 41.7646 39.6854 41.7646 41.8762V43.8323C40.8016 44.1727 39.9673 44.8024 39.3758 45.6352C38.7844 46.4679 38.4647 47.4631 38.4604 48.4845V61.701C38.4604 63.0155 38.9826 64.2761 39.9121 65.2056C40.8416 66.1351 42.1022 66.6572 43.4167 66.6572H56.6332C57.9477 66.6572 59.2083 66.1351 60.1378 65.2056C61.0672 64.2761 61.5894 63.0155 61.5894 61.701V48.4845C61.5852 47.4631 61.2655 46.4679 60.674 45.6352C60.0826 44.8024 59.2483 44.1727 58.2853 43.8323ZM45.0687 41.8762C45.0687 40.5617 45.5909 39.3011 46.5204 38.3716C47.4498 37.4422 48.7105 36.92 50.0249 36.92C51.3394 36.92 52.6 37.4422 53.5295 38.3716C54.459 39.3011 54.9811 40.5617 54.9811 41.8762V43.5283H45.0687V41.8762ZM58.2853 61.701C58.2853 62.1392 58.1112 62.5594 57.8014 62.8692C57.4916 63.179 57.0714 63.3531 56.6332 63.3531H43.4167C42.9785 63.3531 42.5583 63.179 42.2485 62.8692C41.9386 62.5594 41.7646 62.1392 41.7646 61.701V48.4845C41.7646 48.0463 41.9386 47.6261 42.2485 47.3163C42.5583 47.0065 42.9785 46.8324 43.4167 46.8324H56.6332C57.0714 46.8324 57.4916 47.0065 57.8014 47.3163C58.1112 47.6261 58.2853 48.0463 58.2853 48.4845V61.701Z" fill="#0A58FF"/>
<path d="M94.6307 65.0052C93.8948 65.008 93.169 65.1775 92.5078 65.5008L88.7081 61.7011H73.1539V58.3969H81.4142V55.0928H73.1539V51.7887H81.8041L91.1994 47.0902C92.0228 47.8789 93.0935 48.3589 94.2301 48.4489C95.3668 48.539 96.4996 48.2336 97.437 47.5844C98.3744 46.9352 99.0587 45.9821 99.3741 44.8864C99.6895 43.7907 99.6167 42.6196 99.1679 41.5714C98.7192 40.5233 97.9221 39.6623 96.9115 39.1342C95.901 38.6062 94.739 38.4435 93.6222 38.6737C92.5055 38.9039 91.5026 39.5128 90.7832 40.3974C90.0638 41.2821 89.6722 42.3881 89.6745 43.5283C89.6823 43.7293 89.7027 43.9296 89.7357 44.128L81.0243 48.4845H73.1539V45.1804H78.1101V41.8762H73.1539V38.5721H80.4461L85.8979 33.1203C86.5596 33.4439 87.2859 33.6133 88.0225 33.6159C89.0027 33.6159 89.961 33.3252 90.776 32.7806C91.591 32.236 92.2263 31.462 92.6014 30.5564C92.9765 29.6507 93.0747 28.6542 92.8834 27.6928C92.6922 26.7314 92.2202 25.8483 91.527 25.1551C90.8339 24.462 89.9508 23.99 88.9894 23.7987C88.028 23.6075 87.0314 23.7056 86.1258 24.0808C85.2202 24.4559 84.4461 25.0911 83.9015 25.9062C83.3569 26.7212 83.0663 27.6795 83.0663 28.6597C83.0691 29.3957 83.2386 30.1215 83.5619 30.7826L79.0782 35.268H73.1539C73.1512 33.078 72.2801 30.9785 70.7316 29.4299C69.183 27.8814 67.0835 27.0103 64.8935 27.0076V22.7354L74.3351 13.2955C74.9963 13.6188 75.722 13.7882 76.458 13.7911C77.4382 13.7911 78.3965 13.5004 79.2115 12.9558C80.0266 12.4112 80.6618 11.6372 81.0369 10.7316C81.4121 9.82592 81.5102 8.8294 81.319 7.86799C81.1277 6.90658 80.6557 6.02347 79.9626 5.33033C79.2694 4.63719 78.3863 4.16516 77.4249 3.97392C76.4635 3.78269 75.467 3.88084 74.5613 4.25596C73.6557 4.63108 72.8817 5.26633 72.3371 6.08138C71.7925 6.89642 71.5018 7.85465 71.5018 8.8349C71.5046 9.57087 71.6741 10.2966 71.9974 10.9578L61.5894 21.3658V27.0076H58.2853V22.0514H54.9811V27.0076H51.677V15.1392C52.7793 14.7495 53.7083 13.9826 54.2999 12.9742C54.8914 11.9657 55.1075 10.7806 54.9097 9.62833C54.712 8.47602 54.1133 7.4307 53.2195 6.67712C52.3256 5.92354 51.1941 5.51023 50.0249 5.51023C48.8558 5.51023 47.7243 5.92354 46.8304 6.67712C45.9365 7.4307 45.3378 8.47602 45.1401 9.62833C44.9424 10.7806 45.1584 11.9657 45.75 12.9742C46.3415 13.9826 47.2706 14.7495 48.3729 15.1392V27.0076H45.0687V22.0514H41.7646V27.0076H38.4604V14.7592L31.3566 7.65532C31.6801 6.99366 31.8496 6.26729 31.8522 5.53076C31.8522 4.55052 31.5615 3.59228 31.0169 2.77724C30.4723 1.9622 29.6983 1.32695 28.7926 0.951825C27.887 0.576702 26.8905 0.478553 25.9291 0.669789C24.9677 0.861025 24.0845 1.33306 23.3914 2.0262C22.6983 2.71933 22.2262 3.60244 22.035 4.56385C21.8438 5.52526 21.9419 6.52179 22.317 7.42742C22.6922 8.33304 23.3274 9.1071 24.1425 9.65169C24.9575 10.1963 25.9157 10.487 26.896 10.487C27.632 10.4841 28.3577 10.3147 29.0189 9.99134L35.1563 16.1271V27.0076C32.9663 27.0103 30.8668 27.8814 29.3183 29.4299C27.7697 30.9785 26.8986 33.078 26.896 35.268H20.9717L16.4879 30.7826C16.8113 30.1215 16.9807 29.3957 16.9836 28.6597C16.9836 27.6795 16.6929 26.7212 16.1483 25.9062C15.6037 25.0911 14.8296 24.4559 13.924 24.0808C13.0184 23.7056 12.0219 23.6075 11.0605 23.7987C10.0991 23.99 9.21594 24.462 8.5228 25.1551C7.82966 25.8483 7.35763 26.7314 7.1664 27.6928C6.97516 28.6542 7.07331 29.6507 7.44843 30.5564C7.82356 31.462 8.4588 32.236 9.27385 32.7806C10.0889 33.3252 11.0471 33.6159 12.0274 33.6159C12.7633 33.6131 13.4891 33.4436 14.1503 33.1203L19.6021 38.5721H26.896V41.8762H16.3855L7.73199 49.0859C7.0228 48.6968 6.22799 48.4901 5.4191 48.4845C4.43885 48.4845 3.48062 48.7752 2.66558 49.3198C1.85053 49.8644 1.21528 50.6384 0.840161 51.5441C0.465038 52.4497 0.366889 53.4462 0.558125 54.4076C0.749361 55.369 1.22139 56.2521 1.91453 56.9453C2.60767 57.6384 3.49078 58.1105 4.45219 58.3017C5.4136 58.4929 6.41013 58.3948 7.31575 58.0196C8.22138 57.6445 8.99543 57.0093 9.54003 56.1942C10.0846 55.3792 10.3753 54.421 10.3753 53.4407C10.3764 52.7777 10.2432 52.1213 9.98376 51.5111L17.5816 45.1804H26.896V48.4845H21.9398V51.7887H26.896V55.0928H12.0274V58.3969H26.896V61.7011H17.7518L11.0939 71.6861C10.8565 71.6443 10.6163 71.62 10.3753 71.6135C9.22596 71.6029 8.10804 71.9885 7.20956 72.7053C6.31109 73.4221 5.68687 74.4265 5.44188 75.5495C5.19689 76.6724 5.34609 77.8455 5.86438 78.8714C6.38267 79.8973 7.23842 80.7135 8.28773 81.1826C9.33704 81.6517 10.5159 81.7451 11.626 81.4472C12.7361 81.1493 13.7098 80.4782 14.3832 79.5468C15.0567 78.6153 15.3888 77.4804 15.3238 76.3329C15.2589 75.1853 14.8007 74.0951 14.0264 73.2457L19.5195 65.0052H26.896C26.8986 67.1952 27.7697 69.2947 29.3183 70.8432C30.8668 72.3918 32.9663 73.2629 35.1563 73.2655V84.146L29.0189 90.2818C28.3577 89.9585 27.632 89.7891 26.896 89.7862C25.9157 89.7862 24.9575 90.0769 24.1425 90.6215C23.3274 91.1661 22.6922 91.9401 22.317 92.8458C21.9419 93.7514 21.8438 94.7479 22.035 95.7093C22.2262 96.6707 22.6983 97.5538 23.3914 98.247C24.0845 98.9401 24.9677 99.4121 25.9291 99.6034C26.8905 99.7946 27.887 99.6965 28.7926 99.3213C29.6983 98.9462 30.4723 98.311 31.0169 97.4959C31.5615 96.6809 31.8522 95.7227 31.8522 94.7424C31.8493 94.0064 31.6799 93.2807 31.3566 92.6195L38.4604 85.5156V73.2655H41.7646V83.1779H45.0687V73.2655H48.3729V87.3973L58.4075 93.6752C58.1378 94.8326 58.2868 96.0482 58.828 97.1063C59.3692 98.1644 60.2676 98.9966 61.3639 99.4554C62.4603 99.9142 63.6836 99.9699 64.8171 99.6126C65.9506 99.2553 66.9209 98.5081 67.556 97.5035C68.191 96.4989 68.4498 95.3019 68.2863 94.1248C68.1229 92.9476 67.5479 91.8663 66.6632 91.0728C65.7785 90.2792 64.6413 89.8246 63.4534 89.7896C62.2654 89.7546 61.1035 90.1414 60.1736 90.8815L51.677 85.5668V73.2655H54.9811V78.2217H58.2853V73.2655H61.5894V86.4821H73.4578C73.8476 87.5844 74.6144 88.5134 75.6228 89.1049C76.6313 89.6965 77.8164 89.9125 78.9687 89.7148C80.121 89.5171 81.1663 88.9184 81.9199 88.0245C82.6735 87.1307 83.0868 85.9992 83.0868 84.83C83.0868 83.6609 82.6735 82.5294 81.9199 81.6355C81.1663 80.7416 80.121 80.1429 78.9687 79.9452C77.8164 79.7475 76.6313 79.9635 75.6228 80.5551C74.6144 81.1466 73.8476 82.0757 73.4578 83.1779H64.8935V73.2655C67.0835 73.2629 69.183 72.3918 70.7316 70.8432C72.2801 69.2947 73.1512 67.1952 73.1539 65.0052H87.3385L90.1702 67.8385C89.8468 68.4996 89.6774 69.2254 89.6745 69.9614C89.6745 70.9416 89.9652 71.8999 90.5098 72.7149C91.0544 73.53 91.8285 74.1652 92.7341 74.5403C93.6397 74.9155 94.6362 75.0136 95.5977 74.8224C96.5591 74.6311 97.4422 74.1591 98.1353 73.466C98.8284 72.7728 99.3005 71.8897 99.4917 70.9283C99.683 69.9669 99.5848 68.9704 99.2097 68.0647C98.8346 67.1591 98.1993 66.3851 97.3843 65.8405C96.5692 65.2959 95.611 65.0052 94.6307 65.0052ZM94.6307 41.8762C94.9575 41.8762 95.2769 41.9731 95.5486 42.1547C95.8203 42.3362 96.032 42.5942 96.1571 42.8961C96.2821 43.198 96.3148 43.5302 96.2511 43.8506C96.1873 44.1711 96.03 44.4655 95.7989 44.6965C95.5679 44.9276 95.2735 45.0849 94.953 45.1486C94.6326 45.2124 94.3004 45.1797 93.9985 45.0546C93.6967 44.9296 93.4386 44.7178 93.2571 44.4462C93.0756 44.1745 92.9787 43.8551 92.9787 43.5283C92.9787 43.0902 93.1527 42.6699 93.4626 42.3601C93.7724 42.0503 94.1926 41.8762 94.6307 41.8762ZM88.0225 27.0076C88.3492 27.0076 88.6686 27.1045 88.9403 27.2861C89.212 27.4676 89.4237 27.7256 89.5488 28.0275C89.6738 28.3294 89.7065 28.6615 89.6428 28.982C89.5791 29.3025 89.4217 29.5969 89.1907 29.8279C88.9596 30.0589 88.6653 30.2163 88.3448 30.28C88.0243 30.3438 87.6921 30.3111 87.3903 30.186C87.0884 30.061 86.8304 29.8492 86.6488 29.5775C86.4673 29.3059 86.3704 28.9865 86.3704 28.6597C86.3704 28.2216 86.5445 27.8013 86.8543 27.4915C87.1641 27.1817 87.5843 27.0076 88.0225 27.0076ZM76.458 7.18283C76.7848 7.18283 77.1042 7.27972 77.3758 7.46125C77.6475 7.64278 77.8593 7.9008 77.9843 8.20268C78.1094 8.50455 78.1421 8.83673 78.0783 9.1572C78.0146 9.47767 77.8572 9.77204 77.6262 10.0031C77.3951 10.2341 77.1008 10.3915 76.7803 10.4552C76.4598 10.519 76.1277 10.4862 75.8258 10.3612C75.5239 10.2362 75.2659 10.0244 75.0844 9.75273C74.9028 9.48105 74.8059 9.16164 74.8059 8.8349C74.8059 8.39674 74.98 7.97653 75.2898 7.66671C75.5996 7.35688 76.0198 7.18283 76.458 7.18283ZM50.0249 8.8349C50.3517 8.8349 50.6711 8.93179 50.9428 9.11332C51.2144 9.29485 51.4262 9.55287 51.5512 9.85474C51.6763 10.1566 51.709 10.4888 51.6452 10.8093C51.5815 11.1297 51.4242 11.4241 51.1931 11.6552C50.9621 11.8862 50.6677 12.0435 50.3472 12.1073C50.0268 12.171 49.6946 12.1383 49.3927 12.0133C49.0908 11.8882 48.8328 11.6765 48.6513 11.4048C48.4697 11.1331 48.3729 10.8137 48.3729 10.487C48.3729 10.0488 48.5469 9.6286 48.8567 9.31878C49.1666 9.00895 49.5868 8.8349 50.0249 8.8349ZM25.2439 5.53076C25.2439 5.20401 25.3408 4.8846 25.5223 4.61292C25.7039 4.34124 25.9619 4.12949 26.2638 4.00445C26.5656 3.87941 26.8978 3.84669 27.2183 3.91044C27.5387 3.97418 27.8331 4.13153 28.0642 4.36257C28.2952 4.59362 28.4526 4.88799 28.5163 5.20846C28.58 5.52893 28.5473 5.8611 28.4223 6.16298C28.2972 6.46485 28.0855 6.72287 27.8138 6.9044C27.5421 7.08594 27.2227 7.18283 26.896 7.18283C26.4578 7.18283 26.0376 7.00877 25.7278 6.69895C25.418 6.38912 25.2439 5.96892 25.2439 5.53076ZM10.3753 28.6597C10.3753 28.333 10.4722 28.0135 10.6537 27.7419C10.8353 27.4702 11.0933 27.2584 11.3951 27.1334C11.697 27.0084 12.0292 26.9756 12.3497 27.0394C12.6701 27.1031 12.9645 27.2605 13.1956 27.4915C13.4266 27.7226 13.5839 28.0169 13.6477 28.3374C13.7114 28.6579 13.6787 28.99 13.5537 29.2919C13.4286 29.5938 13.2169 29.8518 12.9452 30.0334C12.6735 30.2149 12.3541 30.3118 12.0274 30.3118C11.5892 30.3118 11.169 30.1377 10.8592 29.8279C10.5494 29.5181 10.3753 29.0979 10.3753 28.6597ZM5.4191 55.0928C5.09235 55.0928 4.77294 54.9959 4.50126 54.8144C4.22958 54.6328 4.01783 54.3748 3.89278 54.0729C3.76774 53.7711 3.73503 53.4389 3.79877 53.1184C3.86252 52.798 4.01986 52.5036 4.25091 52.2725C4.48195 52.0415 4.77632 51.8841 5.09679 51.8204C5.41726 51.7567 5.74944 51.7894 6.05131 51.9144C6.35319 52.0395 6.61121 52.2512 6.79274 52.5229C6.97427 52.7946 7.07116 53.114 7.07116 53.4407C7.07116 53.8789 6.89711 54.2991 6.58728 54.6089C6.27746 54.9187 5.85725 55.0928 5.4191 55.0928ZM10.3753 78.2217C10.0486 78.2217 9.72914 78.1248 9.45746 77.9433C9.18578 77.7618 8.97403 77.5038 8.84899 77.2019C8.72395 76.9 8.69123 76.5678 8.75498 76.2474C8.81872 75.9269 8.97607 75.6325 9.20711 75.4015C9.43816 75.1704 9.73253 75.0131 10.053 74.9493C10.3735 74.8856 10.7056 74.9183 11.0075 75.0434C11.3094 75.1684 11.5674 75.3801 11.7489 75.6518C11.9305 75.9235 12.0274 76.2429 12.0274 76.5697C12.0274 77.0078 11.8533 77.428 11.5435 77.7379C11.2337 78.0477 10.8135 78.2217 10.3753 78.2217ZM26.896 96.3945C26.5692 96.3945 26.2498 96.2976 25.9781 96.1161C25.7065 95.9345 25.4947 95.6765 25.3697 95.3746C25.2446 95.0728 25.2119 94.7406 25.2757 94.4201C25.3394 94.0996 25.4967 93.8053 25.7278 93.5742C25.9588 93.3432 26.2532 93.1858 26.5737 93.1221C26.8941 93.0583 27.2263 93.0911 27.5282 93.2161C27.8301 93.3411 28.0881 93.5529 28.2696 93.8246C28.4512 94.0963 28.548 94.4157 28.548 94.7424C28.548 95.1806 28.374 95.6008 28.0642 95.9106C27.7543 96.2204 27.3341 96.3945 26.896 96.3945ZM63.2415 93.0903C63.5682 93.0903 63.8876 93.1872 64.1593 93.3688C64.431 93.5503 64.6427 93.8083 64.7678 94.1102C64.8928 94.4121 64.9255 94.7442 64.8618 95.0647C64.798 95.3852 64.6407 95.6796 64.4097 95.9106C64.1786 96.1416 63.8842 96.299 63.5638 96.3627C63.2433 96.4265 62.9111 96.3938 62.6092 96.2687C62.3074 96.1437 62.0493 95.9319 61.8678 95.6602C61.6863 95.3886 61.5894 95.0692 61.5894 94.7424C61.5894 94.3043 61.7635 93.884 62.0733 93.5742C62.3831 93.2644 62.8033 93.0903 63.2415 93.0903ZM78.1101 83.1779C78.4368 83.1779 78.7562 83.2748 79.0279 83.4564C79.2996 83.6379 79.5113 83.8959 79.6364 84.1978C79.7614 84.4997 79.7941 84.8318 79.7304 85.1523C79.6666 85.4728 79.5093 85.7672 79.2783 85.9982C79.0472 86.2292 78.7528 86.3866 78.4324 86.4503C78.1119 86.5141 77.7797 86.4814 77.4779 86.3563C77.176 86.2313 76.918 86.0195 76.7364 85.7478C76.5549 85.4762 76.458 85.1568 76.458 84.83C76.458 84.3919 76.6321 83.9716 76.9419 83.6618C77.2517 83.352 77.6719 83.1779 78.1101 83.1779ZM69.8497 65.0052C69.8497 66.3197 69.3276 67.5803 68.3981 68.5098C67.4686 69.4392 66.208 69.9614 64.8935 69.9614H35.1563C33.8418 69.9614 32.5812 69.4392 31.6517 68.5098C30.7223 67.5803 30.2001 66.3197 30.2001 65.0052V35.268C30.2001 33.9535 30.7223 32.6929 31.6517 31.7634C32.5812 30.8339 33.8418 30.3118 35.1563 30.3118H64.8935C66.208 30.3118 67.4686 30.8339 68.3981 31.7634C69.3276 32.6929 69.8497 33.9535 69.8497 35.268V65.0052ZM94.6307 71.6135C94.304 71.6135 93.9846 71.5166 93.7129 71.335C93.4412 71.1535 93.2295 70.8955 93.1044 70.5936C92.9794 70.2917 92.9467 69.9596 93.0104 69.6391C93.0742 69.3186 93.2315 69.0243 93.4626 68.7932C93.6936 68.5622 93.988 68.4048 94.3084 68.3411C94.6289 68.2773 94.9611 68.31 95.263 68.4351C95.5648 68.5601 95.8229 68.7719 96.0044 69.0436C96.1859 69.3152 96.2828 69.6347 96.2828 69.9614C96.2828 70.3996 96.1088 70.8198 95.7989 71.1296C95.4891 71.4394 95.0689 71.6135 94.6307 71.6135Z" fill="#0A58FF"/>
</svg>
