<svg width="91" height="90" viewBox="0 0 91 90" fill="none" xmlns="http://www.w3.org/2000/svg">
<path d="M88.0567 15.6469L46.4389 0.778065C45.7817 0.546106 45.0649 0.546106 44.4078 0.778065L2.80032 15.6469C1.62104 16.072 0.834961 17.1909 0.834961 18.4445C0.834961 19.698 1.62104 20.817 2.80032 21.242L23.126 28.504V37.7747C23.126 43.5557 43.1469 43.7222 45.4293 43.7222C47.7116 43.7222 67.7325 43.5557 67.7325 37.7747V28.504L72.1932 26.9204V30.3403C72.1932 31.9826 73.5246 33.314 75.1669 33.314H78.1407C79.7831 33.314 81.1145 31.9826 81.1145 30.3403V25.8796C81.11 25.1911 80.944 24.5132 80.6297 23.9006L88.0641 21.242C89.2434 20.817 90.0295 19.698 90.0295 18.4445C90.0295 17.1909 89.2434 16.072 88.0641 15.6469H88.0567ZM64.7587 34.5035C59.0952 31.9253 47.1615 31.8272 45.4293 31.8272C43.697 31.8272 31.7633 31.9253 26.0998 34.5035V21.5498C26.9919 20.4049 34.0041 18.4452 45.4293 18.4452C56.8545 18.4452 63.8666 20.4049 64.7587 21.5498V34.5035ZM45.4293 40.7485C34.4263 40.7485 27.5168 38.9315 26.2247 37.7747C27.5168 36.6179 34.4293 34.8009 45.4293 34.8009C56.4292 34.8009 63.3417 36.6179 64.6338 37.7747C63.3417 38.9315 56.4322 40.7485 45.4293 40.7485ZM72.8905 23.508L67.7325 25.3473V21.419C67.7325 15.638 47.7116 15.4714 45.4293 15.4714C43.1469 15.4714 23.126 15.638 23.126 21.419V25.3458L3.79653 18.4452L45.4501 3.57638L75.1669 14.1957V21.6926C74.2267 22.0267 73.4254 22.6658 72.8905 23.508ZM78.1407 30.3403H75.1669V25.8796C75.1669 25.0584 75.8326 24.3927 76.6538 24.3927C77.475 24.3927 78.1407 25.0584 78.1407 25.8796V30.3403ZM78.1407 21.6331V15.2588L87.062 18.4452L78.1407 21.6331Z" fill="#0A58FF"/>
<path d="M85.5751 46.696C85.4858 46.6957 85.3967 46.7037 85.3089 46.7198C72.1163 48.7708 58.7801 49.7573 45.4292 49.6698C32.0784 49.7573 18.7422 48.7708 5.54956 46.7198C5.46161 46.7048 5.37261 46.6968 5.2834 46.696C4.24259 46.696 0.822754 47.8751 0.822754 63.0517C0.822754 78.2283 4.24259 79.4074 5.2834 79.4074C5.37269 79.4055 5.46168 79.3966 5.54956 79.3807C15.6867 77.775 25.919 76.8421 36.1793 76.5883L33.277 83.5499C32.831 84.6646 33.1021 85.9382 33.9634 86.7747C34.8246 87.6111 36.1056 87.8449 37.2068 87.3667L38.3442 86.8805L38.8364 88.012C39.3013 89.1092 40.3792 89.8202 41.5708 89.8156H41.608C42.8085 89.8062 43.8847 89.0735 44.3334 87.96L46.9161 81.7775L49.4899 87.9362C49.9347 89.0602 51.0156 89.8031 52.2243 89.8156H52.2689C53.4524 89.8205 54.5245 89.1182 54.9929 88.0313L55.4895 86.8909L56.6091 87.3712C57.7151 87.8594 59.0068 87.6268 59.873 86.7835C60.7392 85.9401 61.0063 84.6552 60.5479 83.5365L57.702 76.7117C66.9528 77.0392 76.1749 77.933 85.3164 79.3881C85.4019 79.4022 85.4884 79.4087 85.5751 79.4074C86.6159 79.4074 90.0357 78.2283 90.0357 63.0517C90.0357 47.8751 86.6159 46.696 85.5751 46.696ZM50.1873 52.5989C50.8048 54.8693 51.1644 57.2021 51.2593 59.5531C47.8879 57.9854 43.9338 58.3529 40.9091 60.5151C40.8331 57.845 40.4909 55.1892 39.8876 52.587C41.6887 52.6247 43.5359 52.6435 45.4292 52.6435C47.0544 52.6435 48.632 52.6257 50.1873 52.5989ZM46.9161 76.4337C42.8102 76.4337 39.4817 73.1052 39.4817 68.9992C39.4817 64.8933 42.8102 61.5648 46.9161 61.5648C51.022 61.5648 54.3505 64.8933 54.3505 68.9992C54.3456 73.1031 51.02 76.4287 46.9161 76.4337ZM5.2834 50.4132C6.42268 54.5252 6.92414 58.7876 6.77029 63.0517C6.92414 67.3158 6.42268 71.5783 5.2834 75.6902C4.14413 71.5783 3.64266 67.3158 3.79652 63.0517C3.64266 58.7876 4.14413 54.5252 5.2834 50.4132ZM8.28691 75.943C9.10023 73.5848 9.74405 69.6386 9.74405 63.0517C9.74405 56.4648 9.10023 52.5186 8.28542 50.1575C17.734 51.4624 27.2469 52.2481 36.7815 52.5112C37.6733 55.9513 38.0817 59.4989 37.9948 63.0517C37.9948 63.2673 37.9948 63.4725 37.9859 63.6792C36.2016 66.6404 36.0218 70.2993 37.5071 73.4212L37.4417 73.5788C27.6866 73.8179 17.9528 74.6082 8.28691 75.946V75.943ZM41.5738 86.8418L40.4883 84.3439C40.1619 83.5938 39.2909 83.2483 38.539 83.5707L36.0366 84.6769L39.5233 76.3177C40.9548 77.7682 42.7811 78.7661 44.775 79.1874L41.5738 86.8418ZM55.2932 83.5707C54.5414 83.2483 53.6704 83.5938 53.3439 84.3439L52.2436 86.8166L49.0558 79.1844C51.0513 78.763 52.879 77.7646 54.3119 76.3132L57.7912 84.6398L55.2932 83.5707ZM85.2777 76.3593C75.725 74.8891 66.0924 73.9953 56.4322 73.6829L56.3266 73.4272C58.1965 69.4869 57.3949 64.7971 54.3223 61.7016C54.3108 58.618 53.9547 55.5454 53.2607 52.5409C63.9823 52.3009 74.677 51.3661 85.2777 49.7426C85.9676 50.9143 87.062 55.5489 87.062 63.0517C87.062 70.5545 85.9602 75.1876 85.2777 76.3593Z" fill="#0A58FF"/>
</svg>
