<svg width="89" height="90" viewBox="0 0 89 90" fill="none" xmlns="http://www.w3.org/2000/svg">
<path d="M84.4829 32.3488H58.7606C56.397 32.3488 54.4735 34.2722 54.4735 36.6358V53.784C54.4735 56.1476 56.397 58.0711 58.7606 58.0711H65.9057V60.9291H63.0476V63.7871H70.1927V70.9322C70.1927 71.7196 69.5511 72.3612 68.7637 72.3612H60.1224C59.5323 65.9178 54.9894 60.4375 48.7575 58.6727V56.642C48.7575 54.2784 46.834 52.355 44.4704 52.355C42.1068 52.355 40.1834 54.2784 40.1834 56.642V58.6727C33.9514 60.4375 29.4086 65.9192 28.8184 72.3612H18.7481C17.9607 72.3612 17.3191 71.7196 17.3191 70.9322V69.4303C25.3187 68.7058 31.6093 61.9694 31.6093 53.784C31.6093 45.117 24.5571 38.0648 15.8901 38.0648C7.2231 38.0648 0.170898 45.117 0.170898 53.784C0.170898 61.9694 6.46143 68.7058 14.4611 69.4303V70.9322C14.4611 73.2958 16.3845 75.2193 18.7481 75.2193H28.8241C29.5486 83.2189 36.285 89.5094 44.4704 89.5094C52.6558 89.5094 59.3922 83.2189 60.1167 75.2193H68.7637C71.1273 75.2193 73.0508 73.2958 73.0508 70.9322V63.7871H80.1958V60.9291H77.3378V58.0711H84.4829C86.8465 58.0711 88.7699 56.1476 88.7699 53.784V36.6358C88.7699 34.2722 86.8465 32.3488 84.4829 32.3488ZM3.02893 53.784C3.02893 46.6932 8.7993 40.9229 15.8901 40.9229C22.9809 40.9229 28.7512 46.6932 28.7512 53.784C28.7512 60.8748 22.9809 66.6452 15.8901 66.6452C8.7993 66.6452 3.02893 60.8748 3.02893 53.784ZM44.4704 75.2193C46.834 75.2193 48.7575 73.2958 48.7575 70.9322V68.0885C50.5209 69.4146 51.6155 71.5124 51.6155 73.7902C51.6155 77.73 48.4102 80.9353 44.4704 80.9353C40.5306 80.9353 37.3253 77.73 37.3253 73.7902C37.3253 71.5124 38.42 69.4146 40.1834 68.0885V70.9322C40.1834 73.2958 42.1068 75.2193 44.4704 75.2193ZM43.0414 56.642C43.0414 55.8547 43.683 55.213 44.4704 55.213C45.2578 55.213 45.8994 55.8547 45.8994 56.642V70.9322C45.8994 71.7196 45.2578 72.3612 44.4704 72.3612C43.683 72.3612 43.0414 71.7196 43.0414 70.9322V56.642ZM44.4704 86.6514C37.3796 86.6514 31.6093 80.881 31.6093 73.7902C31.6093 68.3014 35.1275 63.4656 40.1834 61.675V64.7917C36.7352 66.4365 34.4673 69.9176 34.4673 73.7917C34.4673 79.3077 38.9544 83.7948 44.4704 83.7948C49.9864 83.7948 54.4735 79.3077 54.4735 73.7917C54.4735 69.919 52.2057 66.4365 48.7575 64.7917V61.675C53.8133 63.4656 57.3316 68.3014 57.3316 73.7902C57.3316 80.881 51.5612 86.6514 44.4704 86.6514ZM58.7606 35.2068H84.4829C85.2703 35.2068 85.9119 35.8484 85.9119 36.6358V49.497H57.3316V36.6358C57.3316 35.8484 57.9732 35.2068 58.7606 35.2068ZM74.4798 60.9291H68.7637V58.0711H74.4798V60.9291ZM84.4829 55.213H58.7606C57.9732 55.213 57.3316 54.5714 57.3316 53.784V52.355H85.9119V53.784C85.9119 54.5714 85.2703 55.213 84.4829 55.213Z" fill="#0A58FF"/>
<path d="M4.45844 35.2067H18.7486C21.1122 35.2067 23.0357 33.2833 23.0357 30.9197V19.4876H37.3258C38.1132 19.4876 38.7548 20.1292 38.7548 20.9166V39.4938H41.6129V20.9166C41.6129 18.553 39.6894 16.6295 37.3258 16.6295H23.0357V5.19739C23.0357 2.8338 21.1122 0.910339 18.7486 0.910339H4.45844C2.09484 0.910339 0.171387 2.8338 0.171387 5.19739V30.9197C0.171387 33.2833 2.09484 35.2067 4.45844 35.2067ZM18.7486 32.3487H4.45844C3.67105 32.3487 3.02942 31.7071 3.02942 30.9197V29.4907H20.1776V30.9197C20.1776 31.7071 19.536 32.3487 18.7486 32.3487ZM3.02942 26.6326V9.48444H20.1776V26.6326H3.02942ZM4.45844 3.76837H18.7486C19.536 3.76837 20.1776 4.41 20.1776 5.19739V6.62641H3.02942V5.19739C3.02942 4.41 3.67105 3.76837 4.45844 3.76837Z" fill="#0A58FF"/>
<path d="M20.1771 59.5001C20.1771 57.1365 18.2537 55.213 15.8901 55.213C13.5265 55.213 11.603 57.1365 11.603 59.5001C11.603 61.8637 13.5265 63.7871 15.8901 63.7871C18.2537 63.7871 20.1771 61.8637 20.1771 59.5001ZM14.4611 59.5001C14.4611 58.7127 15.1027 58.071 15.8901 58.071C16.6775 58.071 17.3191 58.7127 17.3191 59.5001C17.3191 60.2875 16.6775 60.9291 15.8901 60.9291C15.1027 60.9291 14.4611 60.2875 14.4611 59.5001Z" fill="#0A58FF"/>
<path d="M20.9431 54.4471L22.9637 52.4264C19.0639 48.5266 12.7177 48.5266 8.81787 52.4264L10.8385 54.4471C13.6237 51.6619 18.1565 51.6619 20.9431 54.4471Z" fill="#0A58FF"/>
<path d="M24.9843 50.4058L27.0049 48.3852C20.8758 42.2561 10.9027 42.2561 4.77368 48.3852L6.79431 50.4058C11.8116 45.3914 19.9684 45.3914 24.9843 50.4058Z" fill="#0A58FF"/>
<path d="M38.7544 48.0679H41.6124V50.926H38.7544V48.0679Z" fill="#0A58FF"/>
<path d="M38.7544 42.3519H41.6124V45.2099H38.7544V42.3519Z" fill="#0A58FF"/>
<path d="M47.3284 48.0679H50.1864V50.926H47.3284V48.0679Z" fill="#0A58FF"/>
<path d="M47.3284 42.3519H50.1864V45.2099H47.3284V42.3519Z" fill="#0A58FF"/>
<path d="M50.1864 18.0586C50.1864 17.2712 50.828 16.6296 51.6154 16.6296H60.2624C60.9812 23.8404 67.0831 29.4907 74.4797 29.4907C82.3593 29.4907 88.7699 23.0801 88.7699 15.2005C88.7699 7.32094 82.3593 0.91037 74.4797 0.91037C67.0817 0.91037 60.9812 6.5607 60.2624 13.7715H51.6154C49.2518 13.7715 47.3284 15.695 47.3284 18.0586V39.4938H50.1864V18.0586ZM74.4797 3.7684C74.927 3.7684 75.8844 5.23029 76.5689 8.05545H72.3905C73.075 5.23029 74.0324 3.7684 74.4797 3.7684ZM77.0791 10.9135C77.1891 11.7909 77.2706 12.7383 77.3091 13.7715H71.6474C71.686 12.7383 71.7688 11.7909 71.8775 10.9135H77.0791ZM74.4797 26.6327C74.0324 26.6327 73.075 25.1708 72.3905 22.3456H76.5689C75.8844 25.1708 74.927 26.6327 74.4797 26.6327ZM71.8803 19.4876C71.7703 18.6102 71.6888 17.6627 71.6502 16.6296H77.312C77.2734 17.6627 77.1905 18.6102 77.0819 19.4876H71.8803ZM80.1686 16.6296H85.8132C85.6875 17.627 85.4374 18.5859 85.0701 19.4876H79.9557C80.0614 18.5487 80.1343 17.5913 80.1686 16.6296ZM85.8132 13.7715H80.1686C80.1343 12.8098 80.0614 11.8524 79.9557 10.9135H85.0701C85.436 11.8152 85.6875 12.7741 85.8132 13.7715ZM68.7908 13.7715H63.1462C63.2719 12.7741 63.522 11.8152 63.8892 10.9135H69.0037C68.8979 11.8524 68.8251 12.8098 68.7908 13.7715ZM68.7908 16.6296C68.8251 17.5913 68.8979 18.5487 69.0037 19.4876H63.8892C63.5234 18.5859 63.2719 17.627 63.1462 16.6296H68.7908ZM65.5698 22.3456H69.4553C69.7296 23.6589 70.084 24.8764 70.5299 25.9153C68.5678 25.1894 66.8573 23.9475 65.5698 22.3456ZM78.4295 25.9153C78.8753 24.8764 79.2297 23.6589 79.5041 22.3456H83.3896C82.1021 23.9475 80.3915 25.1894 78.4295 25.9153ZM83.3896 8.05545H79.5041C79.2297 6.74219 78.8753 5.52467 78.4295 4.48577C80.3915 5.21171 82.1021 6.45353 83.3896 8.05545ZM70.5299 4.48577C70.084 5.52467 69.7311 6.74219 69.4553 8.05545H65.5698C66.8573 6.45353 68.5678 5.21171 70.5299 4.48577Z" fill="#0A58FF"/>
</svg>
