<svg width="58" height="58" viewBox="0 0 58 58" fill="none" xmlns="http://www.w3.org/2000/svg">
<path d="M23.2486 26.6099C23.7972 26.2127 24.062 25.5569 24.062 24.6552C24.0809 24.2265 23.9926 23.804 23.8035 23.4194C23.6332 23.1104 23.381 22.8519 23.0721 22.6691C22.7517 22.4748 22.3959 22.3462 22.0254 22.2907C21.6218 22.2151 21.212 22.1772 20.8084 22.1835H16.3758V27.2089H21.1741C22.0001 27.2152 22.7 27.0135 23.2486 26.6099ZM23.9926 31.1498C23.3747 30.6769 22.5487 30.4436 21.5209 30.4436H16.3632V36.3706H21.4201C21.893 36.3706 22.328 36.3265 22.7505 36.2382C23.1502 36.16 23.5312 36.0059 23.8728 35.7842C24.1944 35.5761 24.4529 35.2924 24.6484 34.9267C24.8376 34.561 24.9321 34.0944 24.9321 33.5332C24.9321 32.4172 24.6169 31.629 23.9926 31.1498ZM29.0306 0.991211C13.4312 0.991211 0.782593 13.6398 0.782593 29.2392C0.782593 44.8387 13.4312 57.4873 29.0306 57.4873C44.6301 57.4873 57.2787 44.8387 57.2787 29.2392C57.2787 13.6398 44.6301 0.991211 29.0306 0.991211ZM34.4848 19.0813H43.2114V21.2062H34.4848V19.0813ZM29.0306 36.6039C28.6225 37.3787 28.0396 38.0479 27.3282 38.5586C26.5841 39.0756 25.7581 39.4539 24.8817 39.6746C23.9647 39.9203 23.0188 40.0412 22.0695 40.034H11.6278V18.5264H21.7795C22.8072 18.5264 23.7404 18.621 24.5917 18.7976C25.4366 18.9741 26.1554 19.2768 26.7607 19.6866C27.3597 20.0965 27.8326 20.645 28.1668 21.326C28.4947 22.0007 28.6649 22.8456 28.6649 23.8482C28.6649 24.9327 28.419 25.828 27.9272 26.5532C27.4291 27.2783 26.7103 27.8647 25.7329 28.325C27.0634 28.7033 28.0407 29.378 28.6838 30.3238C29.3396 31.2822 29.6612 32.4298 29.6612 33.7791C29.6612 34.8762 29.4531 35.8157 29.0306 36.6039ZM46.61 33.2747H35.3612C35.3612 34.4979 35.7837 35.6707 36.4205 36.3013C37.0637 36.9255 37.9842 37.2408 39.1886 37.2408C40.0587 37.2408 40.7964 37.0201 41.427 36.585C42.0512 36.1499 42.4295 35.6896 42.5682 35.2104H46.3389C45.7335 37.0831 44.813 38.4199 43.5645 39.2269C42.3286 40.034 40.8154 40.4376 39.0562 40.4376C37.8266 40.4376 36.7232 40.2358 35.7332 39.8512C34.7811 39.4792 33.9236 38.9117 33.2174 38.1803C32.5211 37.4291 31.9829 36.5457 31.6347 35.5824C31.2501 34.5168 31.061 33.3945 31.0736 32.2658C31.0736 31.0993 31.269 30.0148 31.6474 29.0059C32.3725 27.045 33.8795 25.4749 35.8026 24.6616C36.8304 24.2328 37.9338 24.0184 39.0499 24.031C40.374 24.031 41.5216 24.2832 42.5178 24.8003C43.4769 25.294 44.3096 26.0016 44.9517 26.8684C45.5885 27.7323 46.0362 28.7159 46.3199 29.8256C46.5911 30.9165 46.6856 32.0641 46.61 33.2747ZM38.9174 27.2468C38.2365 27.2468 37.6627 27.3666 37.2213 27.5999C36.7799 27.8332 36.4142 28.1232 36.1368 28.4574C35.8726 28.78 35.6773 29.1534 35.563 29.5545C35.4621 29.8887 35.3927 30.2292 35.3675 30.576H42.3349C42.2341 29.4852 41.8557 28.6781 41.3513 28.1106C40.8217 27.5494 39.9704 27.2468 38.9174 27.2468Z" fill="#FBFBFB"/>
</svg>
