<svg width="53" height="53" viewBox="0 0 53 53" fill="none" xmlns="http://www.w3.org/2000/svg">
<path d="M26.1933 12.9008C18.8099 12.9008 12.8544 18.8563 12.8544 26.2397C12.8544 33.623 18.8099 39.5785 26.1933 39.5785C33.5767 39.5785 39.5321 33.623 39.5321 26.2397C39.5321 18.8563 33.5767 12.9008 26.1933 12.9008ZM26.1933 34.9117C21.4219 34.9117 17.5213 31.0226 17.5213 26.2397C17.5213 21.4567 21.4103 17.5677 26.1933 17.5677C30.9762 17.5677 34.8653 21.4567 34.8653 26.2397C34.8653 31.0226 30.9646 34.9117 26.1933 34.9117ZM43.189 12.3552C43.189 14.0849 41.7959 15.4664 40.0778 15.4664C38.348 15.4664 36.9665 14.0733 36.9665 12.3552C36.9665 10.637 38.3596 9.24393 40.0778 9.24393C41.7959 9.24393 43.189 10.637 43.189 12.3552ZM52.0235 15.5128C51.8262 11.3452 50.8742 7.65348 47.821 4.6119C44.7795 1.57032 41.0878 0.61837 36.9201 0.409406C32.6247 0.165615 19.7502 0.165615 15.4549 0.409406C11.2988 0.606761 7.60711 1.55871 4.55392 4.60029C1.50072 7.64188 0.560386 11.3336 0.351422 15.5012C0.107631 19.7966 0.107631 32.6711 0.351422 36.9665C0.548777 41.1341 1.50072 44.8258 4.55392 47.8674C7.60711 50.909 11.2872 51.8609 15.4549 52.0699C19.7502 52.3137 32.6247 52.3137 36.9201 52.0699C41.0878 51.8726 44.7795 50.9206 47.821 47.8674C50.8626 44.8258 51.8146 41.1341 52.0235 36.9665C52.2673 32.6711 52.2673 19.8082 52.0235 15.5128ZM46.4744 41.5753C45.5689 43.8507 43.8159 45.6036 41.5289 46.5208C38.1042 47.879 29.9779 47.5656 26.1933 47.5656C22.4087 47.5656 14.2707 47.8674 10.8577 46.5208C8.58228 45.6152 6.8293 43.8623 5.91218 41.5753C4.55392 38.1506 4.86736 30.0242 4.86736 26.2397C4.86736 22.4551 4.56553 14.3171 5.91218 10.904C6.81769 8.62865 8.57067 6.87567 10.8577 5.95856C14.2823 4.60029 22.4087 4.91374 26.1933 4.91374C29.9779 4.91374 38.1158 4.6119 41.5289 5.95856C43.8043 6.86407 45.5573 8.61704 46.4744 10.904C47.8326 14.3287 47.5192 22.4551 47.5192 26.2397C47.5192 30.0242 47.8326 38.1622 46.4744 41.5753Z" fill="#FBFBFB"/>
</svg>
